<svg width="32" height="32" viewBox="0 0 32 32" fill="none" xmlns="http://www.w3.org/2000/svg">
<path d="M32 16.0001C32 24.8367 24.8366 32.0001 16 32.0001C7.16344 32.0001 0 24.8367 0 16.0001C0 7.16357 7.16344 0.00012207 16 0.00012207C24.8366 0.00012207 32 7.16357 32 16.0001Z" fill="#002539"/>
<path fill-rule="evenodd" clip-rule="evenodd" d="M11.2674 18.0368C11.8697 17.4345 12.6866 17.0962 13.5383 17.0962H18.4614C19.3132 17.0962 20.13 17.4345 20.7323 18.0368C21.3346 18.6391 21.6729 19.456 21.6729 20.3077V21.5385C21.6729 21.9527 21.3371 22.2885 20.9229 22.2885C20.5087 22.2885 20.1729 21.9527 20.1729 21.5385V20.3077C20.1729 19.8538 19.9926 19.4185 19.6716 19.0975C19.3507 18.7765 18.9153 18.5962 18.4614 18.5962H13.5383C13.0844 18.5962 12.6491 18.7765 12.3281 19.0975C12.0071 19.4185 11.8268 19.8538 11.8268 20.3077V21.5385C11.8268 21.9527 11.491 22.2885 11.0768 22.2885C10.6626 22.2885 10.3268 21.9527 10.3268 21.5385V20.3077C10.3268 19.456 10.6651 18.6391 11.2674 18.0368Z" fill="#F8F8F8"/>
<path fill-rule="evenodd" clip-rule="evenodd" d="M15.9999 11.2117C15.0546 11.2117 14.2883 11.978 14.2883 12.9232C14.2883 13.8685 15.0546 14.6347 15.9999 14.6347C16.9451 14.6347 17.7114 13.8685 17.7114 12.9232C17.7114 11.978 16.9451 11.2117 15.9999 11.2117ZM12.7883 12.9232C12.7883 11.1495 14.2262 9.71167 15.9999 9.71167C17.7736 9.71167 19.2114 11.1495 19.2114 12.9232C19.2114 14.6969 17.7736 16.1347 15.9999 16.1347C14.2262 16.1347 12.7883 14.6969 12.7883 12.9232Z" fill="#F8F8F8"/>
</svg>
