<?xml version="1.0" encoding="UTF-8"?>
<svg xmlns="http://www.w3.org/2000/svg" xmlns:xlink="http://www.w3.org/1999/xlink" width="810pt" height="809.999993pt" viewBox="0 0 810 809.999993" version="1.2">
<defs>
<clipPath id="clip1">
  <path d="M 234 71.25 L 594 71.25 L 594 276 L 234 276 Z M 234 71.25 "/>
</clipPath>
<clipPath id="clip2">
  <path d="M 293.761719 178.75 L 513.511719 178.75 L 513.511719 220.75 L 293.761719 220.75 Z M 293.761719 178.75 "/>
</clipPath>
<clipPath id="clip3">
  <path d="M 293 190.347656 L 518 190.347656 L 518 463 L 293 463 Z M 293 190.347656 "/>
</clipPath>
<clipPath id="clip4">
  <path d="M 193.601562 667 L 194 667 L 194 671 L 193.601562 671 Z M 193.601562 667 "/>
</clipPath>
<clipPath id="clip5">
  <path d="M 616 669 L 616.601562 669 L 616.601562 674 L 616 674 Z M 616 669 "/>
</clipPath>
<clipPath id="clip6">
  <path d="M 193.601562 472 L 616.601562 472 L 616.601562 746.847656 L 193.601562 746.847656 Z M 193.601562 472 "/>
</clipPath>
</defs>
<g id="surface1">
<path style=" stroke:none;fill-rule:nonzero;fill:rgb(92.939758%,44.709778%,0.389099%);fill-opacity:1;" d="M 405 0 C 398.371094 0 391.746094 0.164062 385.128906 0.488281 C 378.507812 0.8125 371.898438 1.300781 365.304688 1.949219 C 358.707031 2.601562 352.128906 3.410156 345.574219 4.382812 C 339.019531 5.355469 332.488281 6.488281 325.988281 7.78125 C 319.488281 9.074219 313.023438 10.527344 306.59375 12.136719 C 300.164062 13.746094 293.777344 15.515625 287.433594 17.4375 C 281.09375 19.363281 274.800781 21.441406 268.558594 23.675781 C 262.320312 25.90625 256.136719 28.292969 250.011719 30.828125 C 243.890625 33.367188 237.832031 36.050781 231.839844 38.882812 C 225.847656 41.71875 219.929688 44.699219 214.085938 47.820312 C 208.238281 50.945312 202.472656 54.210938 196.789062 57.621094 C 191.101562 61.027344 185.503906 64.574219 179.992188 68.253906 C 174.484375 71.9375 169.066406 75.753906 163.742188 79.699219 C 158.417969 83.648438 153.195312 87.726562 148.070312 91.929688 C 142.945312 96.136719 137.929688 100.464844 133.019531 104.914062 C 128.109375 109.367188 123.308594 113.933594 118.621094 118.621094 C 113.933594 123.308594 109.367188 128.109375 104.914062 133.019531 C 100.464844 137.929688 96.136719 142.945312 91.929688 148.070312 C 87.726562 153.195312 83.648438 158.417969 79.699219 163.742188 C 75.753906 169.066406 71.9375 174.484375 68.253906 179.992188 C 64.574219 185.503906 61.027344 191.101562 57.621094 196.789062 C 54.210938 202.472656 50.945312 208.238281 47.820312 214.085938 C 44.699219 219.929688 41.71875 225.847656 38.882812 231.839844 C 36.050781 237.832031 33.367188 243.890625 30.828125 250.011719 C 28.292969 256.136719 25.90625 262.320312 23.675781 268.558594 C 21.441406 274.800781 19.363281 281.09375 17.4375 287.433594 C 15.515625 293.777344 13.746094 300.164062 12.136719 306.59375 C 10.527344 313.023438 9.074219 319.488281 7.78125 325.988281 C 6.488281 332.488281 5.355469 339.019531 4.382812 345.574219 C 3.410156 352.128906 2.601562 358.707031 1.949219 365.304688 C 1.300781 371.898438 0.8125 378.507812 0.488281 385.128906 C 0.164062 391.746094 0 398.371094 0 405 C 0 411.628906 0.164062 418.253906 0.488281 424.871094 C 0.8125 431.492188 1.300781 438.101562 1.949219 444.695312 C 2.601562 451.292969 3.410156 457.871094 4.382812 464.425781 C 5.355469 470.980469 6.488281 477.511719 7.78125 484.011719 C 9.074219 490.511719 10.527344 496.976562 12.136719 503.40625 C 13.746094 509.835938 15.515625 516.222656 17.4375 522.566406 C 19.363281 528.90625 21.441406 535.199219 23.675781 541.441406 C 25.90625 547.679688 28.292969 553.863281 30.828125 559.988281 C 33.367188 566.109375 36.050781 572.167969 38.882812 578.160156 C 41.71875 584.152344 44.699219 590.070312 47.820312 595.914062 C 50.945312 601.761719 54.210938 607.527344 57.621094 613.210938 C 61.027344 618.898438 64.574219 624.496094 68.253906 630.007812 C 71.9375 635.515625 75.753906 640.933594 79.699219 646.257812 C 83.648438 651.582031 87.726562 656.804688 91.929688 661.929688 C 96.136719 667.054688 100.464844 672.070312 104.914062 676.980469 C 109.367188 681.890625 113.933594 686.691406 118.621094 691.378906 C 123.308594 696.066406 128.109375 700.632812 133.019531 705.085938 C 137.929688 709.535156 142.945312 713.863281 148.070312 718.070312 C 153.195312 722.273438 158.417969 726.351562 163.742188 730.300781 C 169.066406 734.246094 174.484375 738.0625 179.992188 741.746094 C 185.503906 745.425781 191.101562 748.972656 196.789062 752.378906 C 202.472656 755.789062 208.238281 759.054688 214.085938 762.179688 C 219.929688 765.300781 225.847656 768.28125 231.839844 771.117188 C 237.832031 773.949219 243.890625 776.632812 250.011719 779.171875 C 256.136719 781.707031 262.320312 784.09375 268.558594 786.324219 C 274.800781 788.558594 281.09375 790.636719 287.433594 792.5625 C 293.777344 794.484375 300.164062 796.253906 306.59375 797.863281 C 313.023438 799.472656 319.488281 800.925781 325.988281 802.21875 C 332.488281 803.511719 339.019531 804.644531 345.574219 805.617188 C 352.128906 806.589844 358.707031 807.398438 365.304688 808.050781 C 371.898438 808.699219 378.507812 809.1875 385.128906 809.511719 C 391.746094 809.835938 398.371094 810 405 810 C 411.628906 810 418.253906 809.835938 424.871094 809.511719 C 431.492188 809.1875 438.101562 808.699219 444.695312 808.050781 C 451.292969 807.398438 457.871094 806.589844 464.425781 805.617188 C 470.980469 804.644531 477.511719 803.511719 484.011719 802.21875 C 490.511719 800.925781 496.976562 799.472656 503.40625 797.863281 C 509.835938 796.253906 516.222656 794.484375 522.566406 792.5625 C 528.90625 790.636719 535.199219 788.558594 541.441406 786.324219 C 547.679688 784.09375 553.863281 781.707031 559.988281 779.171875 C 566.109375 776.632812 572.167969 773.949219 578.160156 771.117188 C 584.152344 768.28125 590.070312 765.300781 595.914062 762.179688 C 601.761719 759.054688 607.527344 755.789062 613.210938 752.378906 C 618.898438 748.972656 624.496094 745.425781 630.007812 741.746094 C 635.515625 738.0625 640.933594 734.246094 646.257812 730.300781 C 651.582031 726.351562 656.804688 722.273438 661.929688 718.070312 C 667.054688 713.863281 672.070312 709.535156 676.980469 705.085938 C 681.890625 700.632812 686.691406 696.066406 691.378906 691.378906 C 696.066406 686.691406 700.632812 681.890625 705.085938 676.980469 C 709.535156 672.070312 713.863281 667.054688 718.070312 661.929688 C 722.273438 656.804688 726.351562 651.582031 730.300781 646.257812 C 734.246094 640.933594 738.0625 635.515625 741.746094 630.007812 C 745.425781 624.496094 748.972656 618.898438 752.378906 613.210938 C 755.789062 607.527344 759.054688 601.761719 762.179688 595.914062 C 765.300781 590.070312 768.28125 584.152344 771.117188 578.160156 C 773.949219 572.167969 776.632812 566.109375 779.171875 559.988281 C 781.707031 553.863281 784.09375 547.679688 786.324219 541.441406 C 788.558594 535.199219 790.636719 528.90625 792.5625 522.566406 C 794.484375 516.222656 796.253906 509.835938 797.863281 503.40625 C 799.472656 496.976562 800.925781 490.511719 802.21875 484.011719 C 803.511719 477.511719 804.644531 470.980469 805.617188 464.425781 C 806.589844 457.871094 807.398438 451.292969 808.050781 444.695312 C 808.699219 438.101562 809.1875 431.492188 809.511719 424.871094 C 809.835938 418.253906 810 411.628906 810 405 C 810 398.371094 809.835938 391.746094 809.511719 385.128906 C 809.1875 378.507812 808.699219 371.898438 808.050781 365.304688 C 807.398438 358.707031 806.589844 352.128906 805.617188 345.574219 C 804.644531 339.019531 803.511719 332.488281 802.21875 325.988281 C 800.925781 319.488281 799.472656 313.023438 797.863281 306.59375 C 796.253906 300.164062 794.484375 293.777344 792.5625 287.433594 C 790.636719 281.09375 788.558594 274.800781 786.324219 268.558594 C 784.09375 262.320312 781.707031 256.136719 779.171875 250.011719 C 776.632812 243.890625 773.949219 237.832031 771.117188 231.839844 C 768.28125 225.847656 765.300781 219.929688 762.179688 214.085938 C 759.054688 208.238281 755.789062 202.472656 752.378906 196.789062 C 748.972656 191.101562 745.425781 185.503906 741.746094 179.992188 C 738.0625 174.484375 734.246094 169.066406 730.300781 163.742188 C 726.351562 158.417969 722.273438 153.195312 718.070312 148.070312 C 713.863281 142.945312 709.535156 137.929688 705.085938 133.019531 C 700.632812 128.109375 696.066406 123.308594 691.378906 118.621094 C 686.691406 113.933594 681.890625 109.367188 676.980469 104.914062 C 672.070312 100.464844 667.054688 96.136719 661.929688 91.929688 C 656.804688 87.726562 651.582031 83.648438 646.257812 79.699219 C 640.933594 75.753906 635.515625 71.9375 630.007812 68.253906 C 624.496094 64.574219 618.898438 61.027344 613.210938 57.621094 C 607.527344 54.210938 601.761719 50.945312 595.914062 47.820312 C 590.070312 44.699219 584.152344 41.71875 578.160156 38.882812 C 572.167969 36.050781 566.109375 33.367188 559.988281 30.828125 C 553.863281 28.292969 547.679688 25.90625 541.441406 23.675781 C 535.199219 21.441406 528.90625 19.363281 522.566406 17.4375 C 516.222656 15.515625 509.835938 13.746094 503.40625 12.136719 C 496.976562 10.527344 490.511719 9.074219 484.011719 7.78125 C 477.511719 6.488281 470.980469 5.355469 464.425781 4.382812 C 457.871094 3.410156 451.292969 2.601562 444.695312 1.949219 C 438.101562 1.300781 431.492188 0.8125 424.871094 0.488281 C 418.253906 0.164062 411.628906 0 405 0 Z M 405 0 "/>
<g clip-path="url(#clip1)" clip-rule="nonzero">
<path style=" stroke:none;fill-rule:nonzero;fill:rgb(0%,14.509583%,22.349548%);fill-opacity:1;" d="M 243.339844 177.84375 L 311.132812 210.96875 L 311.132812 232.21875 C 311.132812 257.46875 360.800781 271.078125 407.535156 271.078125 C 454.261719 271.078125 503.929688 257.46875 503.929688 232.21875 L 503.929688 210.96875 L 559.925781 183.597656 L 559.925781 229.394531 L 536.839844 268.675781 C 535.910156 270.253906 535.882812 272.199219 536.808594 273.789062 C 537.714844 275.367188 539.394531 276.347656 541.242188 276.347656 L 588.800781 276.347656 C 590.632812 276.347656 592.324219 275.367188 593.234375 273.789062 C 594.148438 272.199219 594.128906 270.253906 593.203125 268.675781 L 570.113281 229.394531 L 570.113281 178.625 L 571.722656 177.84375 C 579.285156 174.144531 582.433594 164.964844 578.734375 157.398438 C 577.246094 154.363281 574.769531 151.867188 571.722656 150.390625 L 414.242188 73.449219 C 410.042969 71.402344 405.039062 71.402344 400.824219 73.449219 L 243.339844 150.390625 C 235.769531 154.085938 232.609375 163.253906 236.320312 170.824219 C 237.804688 173.871094 240.3125 176.363281 243.339844 177.84375 Z M 550.144531 266.179688 L 565.03125 240.847656 L 579.914062 266.179688 Z M 493.75 214.167969 C 476.878906 200.578125 441.496094 193.355469 407.558594 193.355469 C 373.621094 193.355469 338.222656 200.558594 321.34375 214.167969 L 321.34375 164.109375 C 321.34375 150.53125 356.757812 135.425781 407.558594 135.425781 C 458.355469 135.425781 493.75 150.53125 493.75 164.109375 Z M 407.546875 260.925781 C 356.746094 260.925781 321.332031 245.808594 321.332031 232.238281 C 321.332031 218.671875 356.746094 203.554688 407.546875 203.554688 C 458.347656 203.554688 493.742188 218.671875 493.742188 232.238281 C 493.742188 245.808594 458.347656 260.925781 407.546875 260.925781 Z M 247.820312 159.527344 L 405.296875 82.585938 C 406.703125 81.914062 408.371094 81.90625 409.769531 82.585938 L 567.261719 159.527344 C 568.289062 160.035156 569.117188 160.871094 569.59375 161.871094 C 570.828125 164.394531 569.789062 167.453125 567.261719 168.683594 L 503.941406 199.621094 L 503.941406 164.109375 C 503.941406 138.859375 454.269531 125.238281 407.546875 125.238281 C 360.8125 125.238281 311.144531 138.867188 311.144531 164.109375 L 311.144531 199.621094 L 247.820312 168.683594 C 246.804688 168.183594 245.976562 167.359375 245.488281 166.351562 C 244.234375 163.824219 245.296875 160.769531 247.820312 159.527344 Z M 247.820312 159.527344 "/>
</g>
<g clip-path="url(#clip2)" clip-rule="nonzero">
<path style=" stroke:none;fill-rule:nonzero;fill:rgb(0%,14.509583%,22.349548%);fill-opacity:1;" d="M 405.714844 450.917969 C 467.546875 450.917969 517.679688 390.035156 517.679688 314.9375 C 517.679688 239.835938 501.222656 178.957031 405.714844 178.957031 C 310.203125 178.957031 293.742188 239.835938 293.742188 314.9375 C 293.742188 390.035156 343.875 450.917969 405.714844 450.917969 Z M 405.714844 450.917969 "/>
</g>
<g clip-path="url(#clip3)" clip-rule="nonzero">
<path style=" stroke:none;fill-rule:nonzero;fill:rgb(90.979004%,90.979004%,90.979004%);fill-opacity:1;" d="M 405.101562 462.511719 C 466.9375 462.511719 517.070312 401.632812 517.070312 326.53125 C 517.070312 251.429688 500.609375 190.550781 405.101562 190.550781 C 309.59375 190.550781 293.128906 251.429688 293.128906 326.53125 C 293.128906 401.632812 343.261719 462.511719 405.101562 462.511719 Z M 405.101562 462.511719 "/>
</g>
<g clip-path="url(#clip4)" clip-rule="nonzero">
<path style=" stroke:none;fill-rule:nonzero;fill:rgb(90.979004%,90.979004%,90.979004%);fill-opacity:1;" d="M 193.617188 670.136719 C 193.597656 665.558594 193.578125 668.847656 193.617188 670.136719 Z M 193.617188 670.136719 "/>
</g>
<g clip-path="url(#clip5)" clip-rule="nonzero">
<path style=" stroke:none;fill-rule:nonzero;fill:rgb(90.979004%,90.979004%,90.979004%);fill-opacity:1;" d="M 616.570312 673.710938 C 616.628906 672.457031 616.589844 665.015625 616.570312 673.710938 Z M 616.570312 673.710938 "/>
</g>
<g clip-path="url(#clip6)" clip-rule="nonzero">
<path style=" stroke:none;fill-rule:nonzero;fill:rgb(90.979004%,90.979004%,90.979004%);fill-opacity:1;" d="M 616.347656 664.65625 C 614.273438 533.828125 597.183594 496.558594 466.417969 472.949219 C 466.417969 472.949219 448.011719 496.402344 405.109375 496.402344 C 362.203125 496.402344 343.792969 472.949219 343.792969 472.949219 C 214.453125 496.289062 196.328125 533.015625 193.941406 660.398438 C 193.746094 670.796875 193.65625 671.34375 193.621094 670.136719 C 193.628906 672.398438 193.640625 676.585938 193.640625 683.882812 C 193.640625 683.882812 224.773438 746.632812 405.109375 746.632812 C 585.445312 746.632812 616.574219 683.882812 616.574219 683.882812 C 616.574219 679.195312 616.578125 675.933594 616.585938 673.714844 C 616.550781 674.460938 616.480469 673.015625 616.347656 664.648438 Z M 616.347656 664.65625 "/>
</g>
</g>
</svg>
