<?xml version="1.0" encoding="UTF-8"?><svg xmlns="http://www.w3.org/2000/svg" xmlns:xlink="http://www.w3.org/1999/xlink" contentScriptType="text/ecmascript" width="810pt" zoomAndPan="magnify" contentStyleType="text/css" viewBox="0 0 810 809.999993" height="809.999993pt" preserveAspectRatio="xMidYMid meet" version="1.2"><g xml:id="surface1" id="surface1"><rect x="0" width="810" y="0" height="809.999993" style="fill:rgb(100%,100%,100%);fill-opacity:1;stroke:none;"/><rect x="0" width="810" y="0" height="809.999993" style="fill:rgb(100%,100%,100%);fill-opacity:1;stroke:none;"/><rect x="0" width="810" y="0" height="809.999993" style="fill:rgb(85.099792%,85.099792%,85.099792%);fill-opacity:1;stroke:none;"/><path style="fill:none;stroke-width:2;stroke-linecap:round;stroke-linejoin:round;stroke:rgb(16.079712%,16.079712%,18.03894%);stroke-opacity:1;stroke-miterlimit:4;" d="M 17.000067 2.999972 C 17.065441 2.934401 17.134153 2.872364 17.205613 2.813665 C 17.277269 2.754769 17.351674 2.6998 17.428631 2.648168 C 17.505588 2.596732 17.584901 2.549223 17.666766 2.50564 C 17.748435 2.461861 17.832067 2.422401 17.917662 2.386867 C 18.003257 2.351334 18.090226 2.320315 18.178962 2.29342 C 18.267699 2.266524 18.357416 2.243947 18.448116 2.225886 C 18.539011 2.207825 18.630496 2.194279 18.722766 2.185248 C 18.815036 2.176021 18.907306 2.171506 18.999968 2.171506 C 19.092631 2.171506 19.185097 2.176021 19.277171 2.185248 C 19.369441 2.194279 19.460925 2.207825 19.551821 2.225886 C 19.642717 2.243947 19.732434 2.266524 19.820974 2.29342 C 19.90971 2.320315 19.996876 2.351334 20.082471 2.386867 C 20.168066 2.422401 20.251698 2.461861 20.333367 2.50564 C 20.415035 2.549223 20.494348 2.596732 20.571305 2.648168 C 20.648459 2.6998 20.722667 2.754769 20.794324 2.813665 C 20.86598 2.872364 20.934495 2.934401 21.000066 2.999972 C 21.06544 3.065542 21.127673 3.134057 21.186373 3.205714 C 21.245268 3.27737 21.300238 3.351579 21.351673 3.428536 C 21.403305 3.505689 21.450814 3.585002 21.494397 3.666671 C 21.538176 3.748339 21.577636 3.831971 21.61317 3.917566 C 21.648507 4.003162 21.679722 4.090327 21.706618 4.178867 C 21.733514 4.267603 21.75609 4.357321 21.774152 4.448217 C 21.792213 4.539112 21.805759 4.630597 21.81479 4.722671 C 21.82382 4.81494 21.828336 4.907407 21.828336 5.000069 C 21.828336 5.092732 21.82382 5.185002 21.81479 5.277272 C 21.805759 5.369345 21.792213 5.461026 21.774152 5.551726 C 21.75609 5.642621 21.733514 5.732339 21.706618 5.821075 C 21.679722 5.909615 21.648507 5.996781 21.61317 6.082376 C 21.577636 6.167971 21.538176 6.251603 21.494397 6.333271 C 21.450814 6.41494 21.403305 6.494449 21.351673 6.571406 C 21.300238 6.648363 21.245268 6.722768 21.186373 6.794425 C 21.127673 6.865885 21.06544 6.9344 21.000066 6.999971 L 7.499996 20.500041 L 1.999924 21.999918 L 3.499997 16.500042 Z M 17.000067 2.999972 " transform="matrix(19.897466,0,0,19.897466,166.019088,166.019104)"/></g></svg>