<svg width="20" height="21" viewBox="0 0 22 23" fill="none" xmlns="http://www.w3.org/2000/svg">
<path d="M13.0319 8V4C13.0319 3.20435 12.715 2.44129 12.1509 1.87868C11.5868 1.31607 10.8217 1 10.024 1L6.01331 10V21H17.3233C17.807 21.0055 18.2763 20.8364 18.6448 20.524C19.0133 20.2116 19.2562 19.7769 19.3287 19.3L20.7123 10.3C20.756 10.0134 20.7366 9.72068 20.6555 9.44225C20.5745 9.16382 20.4337 8.90629 20.243 8.68751C20.0522 8.46873 19.816 8.29393 19.5508 8.17522C19.2856 8.0565 18.9977 7.99672 18.707 8H13.0319ZM6.01331 21H3.00532C2.47348 21 1.96342 20.7893 1.58735 20.4142C1.21127 20.0391 1 19.5304 1 19V12C1 11.4696 1.21127 10.9609 1.58735 10.5858C1.96342 10.2107 2.47348 10 3.00532 10H6.01331" fill="#737380"/>
<path d="M6.01331 21H3.00532C2.47348 21 1.96342 20.7893 1.58735 20.4142C1.21127 20.0391 1 19.5304 1 19V12C1 11.4696 1.21127 10.9609 1.58735 10.5858C1.96342 10.2107 2.47348 10 3.00532 10H6.01331M13.0319 8V4C13.0319 3.20435 12.715 2.44129 12.1509 1.87868C11.5868 1.31607 10.8217 1 10.024 1L6.01331 10V21H17.3233C17.807 21.0055 18.2763 20.8364 18.6448 20.524C19.0133 20.2116 19.2562 19.7769 19.3287 19.3L20.7123 10.3C20.756 10.0134 20.7366 9.72068 20.6555 9.44225C20.5745 9.16382 20.4337 8.90629 20.243 8.68751C20.0522 8.46873 19.816 8.29393 19.5508 8.17522C19.2856 8.0565 18.9977 7.99672 18.707 8H13.0319Z" stroke="#737380" stroke-width="1.5" stroke-linecap="round" stroke-linejoin="round"/>
<path d="M4.1001 9H4.43343M4.43343 9H5.1001V22H4.43343V9Z" stroke="white"/>
</svg>
