<?xml version="1.0" encoding="UTF-8"?>
<svg xmlns="http://www.w3.org/2000/svg" xmlns:xlink="http://www.w3.org/1999/xlink" width="810pt" height="809.999993pt" viewBox="0 0 810 809.999993" version="1.2">
<defs>
<clipPath id="clip1">
  <path d="M 234 75 L 594 75 L 594 279.085938 L 234 279.085938 Z M 234 75 "/>
</clipPath>
<clipPath id="clip2">
  <path d="M 293 201.335938 L 518 201.335938 L 518 474 L 293 474 Z M 293 201.335938 "/>
</clipPath>
<clipPath id="clip3">
  <path d="M 193.601562 678 L 194 678 L 194 682 L 193.601562 682 Z M 193.601562 678 "/>
</clipPath>
<clipPath id="clip4">
  <path d="M 616 680 L 616.601562 680 L 616.601562 685 L 616 685 Z M 616 680 "/>
</clipPath>
<clipPath id="clip5">
  <path d="M 193.601562 483 L 616.601562 483 L 616.601562 757.835938 L 193.601562 757.835938 Z M 193.601562 483 "/>
</clipPath>
</defs>
<g id="surface1">
<path style=" stroke:none;fill-rule:nonzero;fill:rgb(92.939758%,44.709778%,0.389099%);fill-opacity:1;" d="M 405 0 C 398.371094 0 391.746094 0.164062 385.128906 0.488281 C 378.507812 0.8125 371.898438 1.300781 365.304688 1.949219 C 358.707031 2.601562 352.128906 3.410156 345.574219 4.382812 C 339.019531 5.355469 332.488281 6.488281 325.988281 7.78125 C 319.488281 9.074219 313.023438 10.527344 306.59375 12.136719 C 300.164062 13.746094 293.777344 15.515625 287.433594 17.4375 C 281.09375 19.363281 274.800781 21.441406 268.558594 23.675781 C 262.320312 25.90625 256.136719 28.292969 250.011719 30.828125 C 243.890625 33.367188 237.832031 36.050781 231.839844 38.882812 C 225.847656 41.71875 219.929688 44.699219 214.085938 47.820312 C 208.238281 50.945312 202.472656 54.210938 196.789062 57.621094 C 191.101562 61.027344 185.503906 64.574219 179.992188 68.253906 C 174.484375 71.9375 169.066406 75.753906 163.742188 79.699219 C 158.417969 83.648438 153.195312 87.726562 148.070312 91.929688 C 142.945312 96.136719 137.929688 100.464844 133.019531 104.914062 C 128.109375 109.367188 123.308594 113.933594 118.621094 118.621094 C 113.933594 123.308594 109.367188 128.109375 104.914062 133.019531 C 100.464844 137.929688 96.136719 142.945312 91.929688 148.070312 C 87.726562 153.195312 83.648438 158.417969 79.699219 163.742188 C 75.753906 169.066406 71.9375 174.484375 68.253906 179.992188 C 64.574219 185.503906 61.027344 191.101562 57.621094 196.789062 C 54.210938 202.472656 50.945312 208.238281 47.820312 214.085938 C 44.699219 219.929688 41.71875 225.847656 38.882812 231.839844 C 36.050781 237.832031 33.367188 243.890625 30.828125 250.011719 C 28.292969 256.136719 25.90625 262.320312 23.675781 268.558594 C 21.441406 274.800781 19.363281 281.09375 17.4375 287.433594 C 15.515625 293.777344 13.746094 300.164062 12.136719 306.59375 C 10.527344 313.023438 9.074219 319.488281 7.78125 325.988281 C 6.488281 332.488281 5.355469 339.019531 4.382812 345.574219 C 3.410156 352.128906 2.601562 358.707031 1.949219 365.304688 C 1.300781 371.898438 0.8125 378.507812 0.488281 385.128906 C 0.164062 391.746094 0 398.371094 0 405 C 0 411.628906 0.164062 418.253906 0.488281 424.871094 C 0.8125 431.492188 1.300781 438.101562 1.949219 444.695312 C 2.601562 451.292969 3.410156 457.871094 4.382812 464.425781 C 5.355469 470.980469 6.488281 477.511719 7.78125 484.011719 C 9.074219 490.511719 10.527344 496.976562 12.136719 503.40625 C 13.746094 509.835938 15.515625 516.222656 17.4375 522.566406 C 19.363281 528.90625 21.441406 535.199219 23.675781 541.441406 C 25.90625 547.679688 28.292969 553.863281 30.828125 559.988281 C 33.367188 566.109375 36.050781 572.167969 38.882812 578.160156 C 41.71875 584.152344 44.699219 590.070312 47.820312 595.914062 C 50.945312 601.761719 54.210938 607.527344 57.621094 613.210938 C 61.027344 618.898438 64.574219 624.496094 68.253906 630.007812 C 71.9375 635.515625 75.753906 640.933594 79.699219 646.257812 C 83.648438 651.582031 87.726562 656.804688 91.929688 661.929688 C 96.136719 667.054688 100.464844 672.070312 104.914062 676.980469 C 109.367188 681.890625 113.933594 686.691406 118.621094 691.378906 C 123.308594 696.066406 128.109375 700.632812 133.019531 705.085938 C 137.929688 709.535156 142.945312 713.863281 148.070312 718.070312 C 153.195312 722.273438 158.417969 726.351562 163.742188 730.300781 C 169.066406 734.246094 174.484375 738.0625 179.992188 741.746094 C 185.503906 745.425781 191.101562 748.972656 196.789062 752.378906 C 202.472656 755.789062 208.238281 759.054688 214.085938 762.179688 C 219.929688 765.300781 225.847656 768.28125 231.839844 771.117188 C 237.832031 773.949219 243.890625 776.632812 250.011719 779.171875 C 256.136719 781.707031 262.320312 784.09375 268.558594 786.324219 C 274.800781 788.558594 281.09375 790.636719 287.433594 792.5625 C 293.777344 794.484375 300.164062 796.253906 306.59375 797.863281 C 313.023438 799.472656 319.488281 800.925781 325.988281 802.21875 C 332.488281 803.511719 339.019531 804.644531 345.574219 805.617188 C 352.128906 806.589844 358.707031 807.398438 365.304688 808.050781 C 371.898438 808.699219 378.507812 809.1875 385.128906 809.511719 C 391.746094 809.835938 398.371094 810 405 810 C 411.628906 810 418.253906 809.835938 424.871094 809.511719 C 431.492188 809.1875 438.101562 808.699219 444.695312 808.050781 C 451.292969 807.398438 457.871094 806.589844 464.425781 805.617188 C 470.980469 804.644531 477.511719 803.511719 484.011719 802.21875 C 490.511719 800.925781 496.976562 799.472656 503.40625 797.863281 C 509.835938 796.253906 516.222656 794.484375 522.566406 792.5625 C 528.90625 790.636719 535.199219 788.558594 541.441406 786.324219 C 547.679688 784.09375 553.863281 781.707031 559.988281 779.171875 C 566.109375 776.632812 572.167969 773.949219 578.160156 771.117188 C 584.152344 768.28125 590.070312 765.300781 595.914062 762.179688 C 601.761719 759.054688 607.527344 755.789062 613.210938 752.378906 C 618.898438 748.972656 624.496094 745.425781 630.007812 741.746094 C 635.515625 738.0625 640.933594 734.246094 646.257812 730.300781 C 651.582031 726.351562 656.804688 722.273438 661.929688 718.070312 C 667.054688 713.863281 672.070312 709.535156 676.980469 705.085938 C 681.890625 700.632812 686.691406 696.066406 691.378906 691.378906 C 696.066406 686.691406 700.632812 681.890625 705.085938 676.980469 C 709.535156 672.070312 713.863281 667.054688 718.070312 661.929688 C 722.273438 656.804688 726.351562 651.582031 730.300781 646.257812 C 734.246094 640.933594 738.0625 635.515625 741.746094 630.007812 C 745.425781 624.496094 748.972656 618.898438 752.378906 613.210938 C 755.789062 607.527344 759.054688 601.761719 762.179688 595.914062 C 765.300781 590.070312 768.28125 584.152344 771.117188 578.160156 C 773.949219 572.167969 776.632812 566.109375 779.171875 559.988281 C 781.707031 553.863281 784.09375 547.679688 786.324219 541.441406 C 788.558594 535.199219 790.636719 528.90625 792.5625 522.566406 C 794.484375 516.222656 796.253906 509.835938 797.863281 503.40625 C 799.472656 496.976562 800.925781 490.511719 802.21875 484.011719 C 803.511719 477.511719 804.644531 470.980469 805.617188 464.425781 C 806.589844 457.871094 807.398438 451.292969 808.050781 444.695312 C 808.699219 438.101562 809.1875 431.492188 809.511719 424.871094 C 809.835938 418.253906 810 411.628906 810 405 C 810 398.371094 809.835938 391.746094 809.511719 385.128906 C 809.1875 378.507812 808.699219 371.898438 808.050781 365.304688 C 807.398438 358.707031 806.589844 352.128906 805.617188 345.574219 C 804.644531 339.019531 803.511719 332.488281 802.21875 325.988281 C 800.925781 319.488281 799.472656 313.023438 797.863281 306.59375 C 796.253906 300.164062 794.484375 293.777344 792.5625 287.433594 C 790.636719 281.09375 788.558594 274.800781 786.324219 268.558594 C 784.09375 262.320312 781.707031 256.136719 779.171875 250.011719 C 776.632812 243.890625 773.949219 237.832031 771.117188 231.839844 C 768.28125 225.847656 765.300781 219.929688 762.179688 214.085938 C 759.054688 208.238281 755.789062 202.472656 752.378906 196.789062 C 748.972656 191.101562 745.425781 185.503906 741.746094 179.992188 C 738.0625 174.484375 734.246094 169.066406 730.300781 163.742188 C 726.351562 158.417969 722.273438 153.195312 718.070312 148.070312 C 713.863281 142.945312 709.535156 137.929688 705.085938 133.019531 C 700.632812 128.109375 696.066406 123.308594 691.378906 118.621094 C 686.691406 113.933594 681.890625 109.367188 676.980469 104.914062 C 672.070312 100.464844 667.054688 96.136719 661.929688 91.929688 C 656.804688 87.726562 651.582031 83.648438 646.257812 79.699219 C 640.933594 75.753906 635.515625 71.9375 630.007812 68.253906 C 624.496094 64.574219 618.898438 61.027344 613.210938 57.621094 C 607.527344 54.210938 601.761719 50.945312 595.914062 47.820312 C 590.070312 44.699219 584.152344 41.71875 578.160156 38.882812 C 572.167969 36.050781 566.109375 33.367188 559.988281 30.828125 C 553.863281 28.292969 547.679688 25.90625 541.441406 23.675781 C 535.199219 21.441406 528.90625 19.363281 522.566406 17.4375 C 516.222656 15.515625 509.835938 13.746094 503.40625 12.136719 C 496.976562 10.527344 490.511719 9.074219 484.011719 7.78125 C 477.511719 6.488281 470.980469 5.355469 464.425781 4.382812 C 457.871094 3.410156 451.292969 2.601562 444.695312 1.949219 C 438.101562 1.300781 431.492188 0.8125 424.871094 0.488281 C 418.253906 0.164062 411.628906 0 405 0 Z M 405 0 "/>
<g clip-path="url(#clip1)" clip-rule="nonzero">
<path style=" stroke:none;fill-rule:nonzero;fill:rgb(0%,14.509583%,22.349548%);fill-opacity:1;" d="M 243.40625 180.925781 L 311.203125 214.054688 L 311.203125 235.300781 C 311.203125 260.554688 360.871094 274.164062 407.605469 274.164062 C 454.332031 274.164062 504 260.554688 504 235.300781 L 504 214.054688 L 559.996094 186.683594 L 559.996094 232.480469 L 536.910156 271.761719 C 535.980469 273.339844 535.949219 275.285156 536.878906 276.875 C 537.785156 278.453125 539.464844 279.429688 541.308594 279.429688 L 588.871094 279.429688 C 590.703125 279.429688 592.394531 278.453125 593.300781 276.875 C 594.21875 275.285156 594.199219 273.339844 593.269531 271.761719 L 570.183594 232.480469 L 570.183594 181.710938 L 571.792969 180.925781 C 579.355469 177.230469 582.5 168.050781 578.804688 160.480469 C 577.316406 157.445312 574.839844 154.949219 571.792969 153.472656 L 414.308594 76.535156 C 410.113281 74.488281 405.109375 74.488281 400.890625 76.535156 L 243.40625 153.472656 C 235.839844 157.171875 232.679688 166.339844 236.386719 173.90625 C 237.875 176.953125 240.382812 179.449219 243.40625 180.925781 Z M 550.214844 269.265625 L 565.101562 243.929688 L 579.984375 269.265625 Z M 493.820312 217.25 C 476.949219 203.664062 441.5625 196.441406 407.625 196.441406 C 373.6875 196.441406 338.292969 203.640625 321.410156 217.25 L 321.410156 167.195312 C 321.410156 153.617188 356.828125 138.507812 407.625 138.507812 C 458.425781 138.507812 493.820312 153.617188 493.820312 167.195312 Z M 407.617188 264.007812 C 356.816406 264.007812 321.402344 248.890625 321.402344 235.324219 C 321.402344 221.753906 356.816406 206.636719 407.617188 206.636719 C 458.417969 206.636719 493.8125 221.753906 493.8125 235.324219 C 493.8125 248.890625 458.417969 264.007812 407.617188 264.007812 Z M 247.890625 162.609375 L 405.363281 85.671875 C 406.769531 85 408.441406 84.988281 409.835938 85.671875 L 567.332031 162.609375 C 568.359375 163.121094 569.183594 163.957031 569.664062 164.953125 C 570.898438 167.480469 569.859375 170.535156 567.332031 171.769531 L 504.007812 202.707031 L 504.007812 167.195312 C 504.007812 141.941406 454.339844 128.324219 407.617188 128.324219 C 360.882812 128.324219 311.210938 141.953125 311.210938 167.195312 L 311.210938 202.707031 L 247.890625 171.769531 C 246.871094 171.269531 246.046875 170.445312 245.558594 169.4375 C 244.304688 166.910156 245.363281 163.855469 247.890625 162.609375 Z M 247.890625 162.609375 "/>
</g>
<g clip-path="url(#clip2)" clip-rule="nonzero">
<path style=" stroke:none;fill-rule:nonzero;fill:rgb(90.979004%,90.979004%,90.979004%);fill-opacity:1;" d="M 405.101562 473.503906 C 466.9375 473.503906 517.070312 412.621094 517.070312 337.523438 C 517.070312 262.421875 500.609375 201.542969 405.101562 201.542969 C 309.59375 201.542969 293.128906 262.421875 293.128906 337.523438 C 293.128906 412.621094 343.261719 473.503906 405.101562 473.503906 Z M 405.101562 473.503906 "/>
</g>
<g clip-path="url(#clip3)" clip-rule="nonzero">
<path style=" stroke:none;fill-rule:nonzero;fill:rgb(90.979004%,90.979004%,90.979004%);fill-opacity:1;" d="M 193.617188 681.128906 C 193.597656 676.550781 193.578125 679.835938 193.617188 681.128906 Z M 193.617188 681.128906 "/>
</g>
<g clip-path="url(#clip4)" clip-rule="nonzero">
<path style=" stroke:none;fill-rule:nonzero;fill:rgb(90.979004%,90.979004%,90.979004%);fill-opacity:1;" d="M 616.570312 684.703125 C 616.628906 683.449219 616.589844 676.003906 616.570312 684.703125 Z M 616.570312 684.703125 "/>
</g>
<g clip-path="url(#clip5)" clip-rule="nonzero">
<path style=" stroke:none;fill-rule:nonzero;fill:rgb(90.979004%,90.979004%,90.979004%);fill-opacity:1;" d="M 616.347656 675.648438 C 614.273438 544.820312 597.183594 507.550781 466.417969 483.941406 C 466.417969 483.941406 448.011719 507.394531 405.109375 507.394531 C 362.203125 507.394531 343.792969 483.941406 343.792969 483.941406 C 214.453125 507.28125 196.328125 544.007812 193.941406 671.386719 C 193.746094 681.789062 193.65625 682.335938 193.621094 681.128906 C 193.628906 683.390625 193.640625 687.578125 193.640625 694.875 C 193.640625 694.875 224.773438 757.625 405.109375 757.625 C 585.445312 757.625 616.574219 694.875 616.574219 694.875 C 616.574219 690.1875 616.578125 686.925781 616.585938 684.707031 C 616.550781 685.453125 616.480469 684.007812 616.347656 675.640625 Z M 616.347656 675.648438 "/>
</g>
</g>
</svg>
