<?xml version="1.0" encoding="UTF-8"?>
<svg xmlns="http://www.w3.org/2000/svg" xmlns:xlink="http://www.w3.org/1999/xlink" width="1969.5pt" height="1313.25pt" viewBox="0 0 1969.5 1313.25" version="1.2">
<defs>
<clipPath id="clip1">
  <path d="M 0.3125 0 L 1968.6875 0 L 1968.6875 1312.5 L 0.3125 1312.5 Z M 0.3125 0 "/>
</clipPath>
<clipPath id="clip2">
  <path d="M 1145 0 L 1968.6875 0 L 1968.6875 769 L 1145 769 Z M 1145 0 "/>
</clipPath>
<filter id="alpha" filterUnits="objectBoundingBox" x="0%" y="0%" width="100%" height="100%">
  <feColorMatrix type="matrix" in="SourceGraphic" values="0 0 0 0 1 0 0 0 0 1 0 0 0 0 1 0 0 0 1 0"/>
</filter>
<mask id="mask0">
  <g filter="url(#alpha)">
<rect x="0" y="0" width="1969.5" height="1313.25" style="fill:rgb(0%,0%,0%);fill-opacity:0.0196;stroke:none;"/>
  </g>
</mask>
<clipPath id="clip4">
  <path d="M 39 0 L 823.6875 0 L 823.6875 699 L 39 699 Z M 39 0 "/>
</clipPath>
<clipPath id="clip5">
  <path d="M 242.683594 -227.671875 L 1016.917969 24.425781 L 775.03125 767.289062 L 0.800781 515.191406 Z M 242.683594 -227.671875 "/>
</clipPath>
<clipPath id="clip6">
  <path d="M 242.683594 -227.671875 L 1016.917969 24.425781 L 775.03125 767.289062 L 0.800781 515.191406 Z M 242.683594 -227.671875 "/>
</clipPath>
<clipPath id="clip7">
  <path d="M 242.445312 -226.941406 L 1018.519531 25.757812 L 776.769531 768.207031 L 0.695312 515.511719 Z M 242.445312 -226.941406 "/>
</clipPath>
<clipPath id="clip8">
  <path d="M 242.445312 -226.941406 L 1016.753906 25.183594 L 775.363281 766.523438 L 1.058594 514.398438 Z M 242.445312 -226.941406 "/>
</clipPath>
<clipPath id="clip3">
  <rect x="0" y="0" width="824" height="769"/>
</clipPath>
<g id="surface5" clip-path="url(#clip3)">
<g clip-path="url(#clip4)" clip-rule="nonzero">
<g clip-path="url(#clip5)" clip-rule="nonzero">
<g clip-path="url(#clip6)" clip-rule="nonzero">
<g clip-path="url(#clip7)" clip-rule="nonzero">
<g clip-path="url(#clip8)" clip-rule="nonzero">
<path style=" stroke:none;fill-rule:nonzero;fill:rgb(0%,14.509583%,22.349548%);fill-opacity:1;" d="M 420.933594 504.007812 C 424.984375 505.324219 428.953125 507.027344 432.835938 509.167969 C 459.007812 523.59375 477.449219 555.132812 490.871094 608.4375 C 497.460938 634.597656 513.949219 656.277344 537.304688 669.476562 C 560.371094 682.515625 587.042969 685.46875 612.398438 677.753906 C 744.382812 637.601562 814.292969 598.054688 826.140625 556.859375 C 835.808594 523.21875 806.117188 489.0625 774.675781 452.902344 C 742.15625 415.492188 708.515625 376.804688 714.113281 332.878906 C 717.871094 303.355469 738.882812 275.835938 778.332031 248.710938 C 873.703125 183.15625 906.070312 116.007812 871.949219 54.507812 C 807.035156 -62.453125 539.445312 -120.144531 420.398438 -68.035156 C 364.5 -43.566406 346.382812 -0.03125 366.53125 61.375 C 378.125 96.636719 377.75 123.300781 365.417969 142.878906 C 347.835938 170.765625 309.007812 181.03125 256.121094 187.847656 C 164.105469 199.8125 94.433594 285.777344 68.644531 360.585938 C 47.628906 421.539062 53.675781 474.875 85.214844 506.917969 C 115.039062 537.214844 181.882812 563.042969 330.980469 514.074219 C 362.832031 503.628906 393.722656 495.144531 420.933594 504.007812 Z M 549.972656 693.132812 C 542.828125 690.808594 535.851562 687.738281 529.140625 683.949219 C 501.792969 668.480469 482.480469 643.105469 474.773438 612.5 C 462.726562 564.636719 446.382812 535.601562 424.816406 523.710938 C 400.679688 510.402344 370.382812 518.621094 336.148438 529.859375 C 178.96875 581.488281 106.507812 552.214844 73.382812 518.578125 C 37.253906 481.882812 29.800781 422.320312 52.945312 355.179688 C 80.355469 275.679688 154.953125 184.25 253.992188 171.375 C 295.746094 165.988281 336.425781 157.746094 351.375 134.03125 C 360.90625 118.898438 360.703125 96.832031 350.757812 66.570312 C 328.140625 -2.367188 350.511719 -55.574219 413.746094 -83.246094 C 475.449219 -110.257812 574.964844 -111.113281 673.46875 -85.480469 C 775.726562 -58.871094 855.390625 -9.546875 886.464844 46.4375 C 913.605469 95.347656 918.507812 172.515625 787.730469 262.402344 C 752.398438 286.683594 733.710938 310.425781 730.585938 334.964844 C 725.933594 371.523438 757.082031 407.347656 787.199219 441.988281 C 820.167969 479.90625 854.257812 519.125 842.09375 561.449219 C 828.382812 609.136719 756.921875 651.136719 617.214844 693.644531 L 614.804688 685.691406 L 617.214844 693.644531 C 594.859375 700.445312 571.625 700.183594 549.972656 693.132812 "/>
</g>
</g>
</g>
</g>
</g>
</g>
<clipPath id="clip9">
  <path d="M 0.3125 416 L 839 416 L 839 1312.5 L 0.3125 1312.5 Z M 0.3125 416 "/>
</clipPath>
<mask id="mask1">
  <g filter="url(#alpha)">
<rect x="0" y="0" width="1969.5" height="1313.25" style="fill:rgb(0%,0%,0%);fill-opacity:0.0196;stroke:none;"/>
  </g>
</mask>
<clipPath id="clip11">
  <path d="M 0.3125 126 L 722 126 L 722 896.5 L 0.3125 896.5 Z M 0.3125 126 "/>
</clipPath>
<clipPath id="clip12">
  <path d="M 61.785156 2.683594 L 836.015625 254.785156 L 594.132812 997.648438 L -180.097656 745.550781 Z M 61.785156 2.683594 "/>
</clipPath>
<clipPath id="clip13">
  <path d="M 61.785156 2.683594 L 836.015625 254.785156 L 594.132812 997.648438 L -180.097656 745.550781 Z M 61.785156 2.683594 "/>
</clipPath>
<clipPath id="clip14">
  <path d="M 61.546875 3.417969 L 837.621094 256.117188 L 595.871094 998.566406 L -180.203125 745.867188 Z M 61.546875 3.417969 "/>
</clipPath>
<clipPath id="clip15">
  <path d="M 61.546875 3.417969 L 835.851562 255.542969 L 594.464844 996.878906 L -179.84375 744.757812 Z M 61.546875 3.417969 "/>
</clipPath>
<clipPath id="clip10">
  <rect x="0" y="0" width="839" height="897"/>
</clipPath>
<g id="surface8" clip-path="url(#clip10)">
<g clip-path="url(#clip11)" clip-rule="nonzero">
<g clip-path="url(#clip12)" clip-rule="nonzero">
<g clip-path="url(#clip13)" clip-rule="nonzero">
<g clip-path="url(#clip14)" clip-rule="nonzero">
<g clip-path="url(#clip15)" clip-rule="nonzero">
<path style=" stroke:none;fill-rule:nonzero;fill:rgb(0%,14.509583%,22.349548%);fill-opacity:1;" d="M 240.035156 734.363281 C 244.085938 735.683594 248.054688 737.386719 251.9375 739.527344 C 278.109375 753.953125 296.550781 785.492188 309.972656 838.796875 C 316.5625 864.953125 333.050781 886.636719 356.40625 899.835938 C 379.472656 912.875 406.144531 915.824219 431.5 908.113281 C 563.484375 867.960938 633.394531 828.414062 645.242188 787.214844 C 654.910156 753.578125 625.21875 719.417969 593.777344 683.261719 C 561.257812 645.847656 527.617188 607.164062 533.214844 563.238281 C 536.972656 533.714844 557.980469 506.191406 597.433594 479.066406 C 692.804688 413.515625 725.171875 346.363281 691.050781 284.863281 C 626.136719 167.90625 358.542969 110.214844 239.5 162.324219 C 183.601562 186.789062 165.484375 230.324219 185.632812 291.734375 C 197.222656 326.996094 196.847656 353.660156 184.519531 373.238281 C 166.9375 401.125 128.109375 411.390625 75.222656 418.203125 C -16.792969 430.171875 -86.464844 516.136719 -112.253906 590.945312 C -133.273438 651.894531 -127.226562 705.234375 -95.683594 737.273438 C -65.859375 767.574219 0.984375 793.398438 150.082031 744.429688 C 181.929688 733.988281 212.824219 725.503906 240.035156 734.363281 Z M 369.070312 923.492188 C 361.929688 921.164062 354.949219 918.097656 348.238281 914.308594 C 320.894531 898.839844 301.582031 873.464844 293.875 842.859375 C 281.828125 794.996094 265.484375 765.957031 243.917969 754.066406 C 219.777344 740.757812 189.484375 748.980469 155.25 760.21875 C -1.929688 811.84375 -74.394531 782.574219 -107.515625 748.9375 C -143.644531 712.238281 -151.097656 652.675781 -127.953125 585.539062 C -100.542969 506.035156 -25.945312 414.609375 73.09375 401.734375 C 114.847656 396.34375 155.527344 388.105469 170.476562 364.386719 C 180.007812 349.257812 179.804688 327.191406 169.859375 296.925781 C 147.238281 227.992188 169.609375 174.785156 232.847656 147.113281 C 294.550781 120.101562 394.066406 119.242188 492.570312 144.878906 C 594.828125 171.488281 674.488281 220.8125 705.566406 276.792969 C 732.707031 325.703125 737.609375 402.875 606.832031 492.761719 C 571.5 517.042969 552.8125 540.78125 549.683594 565.324219 C 545.035156 601.878906 576.183594 637.707031 606.300781 672.34375 C 639.269531 710.265625 673.359375 749.484375 661.191406 791.808594 C 647.484375 839.496094 576.023438 881.496094 436.316406 924 L 433.90625 916.050781 L 436.316406 924 C 413.960938 930.804688 390.722656 930.539062 369.070312 923.492188 "/>
</g>
</g>
</g>
</g>
</g>
</g>
</defs>
<g id="surface1">
<g clip-path="url(#clip1)" clip-rule="nonzero">
<path style=" stroke:none;fill-rule:nonzero;fill:rgb(100%,100%,100%);fill-opacity:1;" d="M 0.3125 0 L 1969.1875 0 L 1969.1875 1319.582031 L 0.3125 1319.582031 Z M 0.3125 0 "/>
<path style=" stroke:none;fill-rule:nonzero;fill:rgb(100%,100%,100%);fill-opacity:1;" d="M 0.3125 0 L 1969.1875 0 L 1969.1875 1312.832031 L 0.3125 1312.832031 Z M 0.3125 0 "/>
<path style=" stroke:none;fill-rule:nonzero;fill:rgb(95.289612%,95.289612%,95.289612%);fill-opacity:1;" d="M 0.3125 0 L 1969.1875 0 L 1969.1875 1312.832031 L 0.3125 1312.832031 Z M 0.3125 0 "/>
</g>
<g clip-path="url(#clip2)" clip-rule="nonzero">
<use xlink:href="#surface5" transform="matrix(1,0,0,1,1145,-0.000000000000034231)" mask="url(#mask0)"/>
</g>
<g clip-path="url(#clip9)" clip-rule="nonzero">
<use xlink:href="#surface8" transform="matrix(1,0,0,1,-0.000000000000000056,416)" mask="url(#mask1)"/>
</g>
</g>
</svg>
